<?xml version="1.0" encoding="utf-8"?>
<!-- Generator: Adobe Illustrator 22.1.0, SVG Export Plug-In . SVG Version: 6.00 Build 0)  -->
<svg version="1.1" id="Layer_1" xmlns="http://www.w3.org/2000/svg" xmlns:xlink="http://www.w3.org/1999/xlink" x="0px" y="0px"
	 viewBox="0 0 24 24" style="enable-background:new 0 0 24 24;" xml:space="preserve">
<style type="text/css">
	.st0{fill:#FFFFFF;}
</style>
<rect x="-20.8" y="-13.5" width="74.4" height="62.5"/>
<path class="st0" d="M23.3,20.5l-8.4-8.3c-0.1-0.1-0.1-0.3,0-0.4l8.3-8.3c0.1-0.1,0.1-0.3,0-0.4l-2.2-2.2c-0.1-0.1-0.3-0.1-0.4,0
	l-8.3,8.4c-0.1,0.1-0.3,0.1-0.4,0L3.4,0.8c-0.1-0.1-0.3-0.1-0.4,0L0.7,3.1c-0.1,0.1-0.1,0.3,0,0.4l8.4,8.3c0.1,0.1,0.1,0.3,0,0.4
	l-8.3,8.4c-0.1,0.1-0.1,0.3,0,0.4l2.2,2.2c0.1,0.1,0.3,0.1,0.4,0l8.3-8.4c0.1-0.1,0.3-0.1,0.4,0l8.3,8.3c0.1,0.1,0.3,0.1,0.4,0
	l2.2-2.2C23.4,20.8,23.4,20.6,23.3,20.5z"/>
</svg>
